<svg xmlns="http://www.w3.org/2000/svg" xmlns:xlink="http://www.w3.org/1999/xlink" version="1.1" id="Layer_1" x="0px" y="0px" viewBox="0 0 22 22" style="enable-background:new 0 0 22 22;" xml:space="preserve" height="22" width="22" class="blank_cart">
        <style type="text/css">
          .st0{fill-rule:evenodd;clip-rule:evenodd; fill:#000;}

          @media(min-width: 768px){
            .st0{fill:#000 !important;}
          }
        </style>
        <path class="st0 header_cart_icon_svg" d="M14,6.1v1.2C14,7.6,14.4,8,14.7,8c0.4,0,0.7-0.3,0.7-0.7V6.1h1.4c0.6,0,1.1,0.4,1.2,1l1.4,12.2  c0.1,0.6-0.4,1.2-1,1.3c0,0-0.1,0-0.1,0H3.7c-0.6,0-1.2-0.5-1.2-1.2c0,0,0-0.1,0-0.1L4,7.1c0.1-0.6,0.6-1,1.2-1h1.4v1.2  C6.6,7.6,6.9,8,7.3,8S8,7.6,8,7.3V6.1H14z M15.4,4.7V4.4C15.4,2,13.5,0,11,0S6.6,2,6.6,4.4v0.2H5.2c-1.3,0-2.4,1-2.6,2.3L1.2,19.1  C1,20.5,2,21.8,3.4,22c0.1,0,0.2,0,0.3,0h14.5c1.4,0,2.6-1.2,2.6-2.6c0-0.1,0-0.2,0-0.3L19.4,7c-0.2-1.3-1.3-2.3-2.6-2.3H15.4z   M11,1.4c-1.7,0-3,1.4-3,3l0,0v0.2H14V4.4C14,2.8,12.7,1.4,11,1.4L11,1.4z"></path>
        </svg>